<svg xmlns="http://www.w3.org/2000/svg" viewBox="0 0 48 48" width="48" height="48">
  <!-- Background circle - FIFA navy -->
  <circle cx="24" cy="24" r="24" fill="#00173A"/>
  <!-- Soccer ball -->
  <circle cx="24" cy="24" r="14" fill="#fff" stroke="#00173A" stroke-width="0.5"/>
  <!-- Pentagon pattern -->
  <polygon points="24,12 28.5,15 27,20 21,20 19.5,15" fill="#00173A"/>
  <polygon points="33,19 35,24 31.5,27.5 27.5,25 28.5,20.5" fill="#00173A"/>
  <polygon points="30,32 25.5,34.5 21,32.5 21.5,28 26.5,27" fill="#00173A"/>
  <polygon points="15,19 19.5,20.5 20.5,25 16.5,27.5 13,24" fill="#00173A"/>
  <polygon points="18,32 22.5,32.5 22,28 17.5,27" fill="#00173A"/>
  <!-- Trophy accent -->
  <circle cx="38" cy="10" r="8" fill="#00173A"/>
  <text x="38" y="14" text-anchor="middle" font-size="12" fill="#F59E0B">&#127942;</text>
</svg>
